# xmcd
# Track frame offsets:
# 150
# 18755
# 36188
# 55994
# 79406
# 100633
# 118333
# 135601
# 164411
# 181812
# 200795
# 217975
#
# Disc length: 3149 seconds
# Revision: 0
# Processed by: cddbd v1.5.2PL0 Copyright (c) Steve Scherf et al.
# Submitted via: VisiTrax 2.10.2.252 - For more info visit www.synapsa.com
#
DISCID=a50c4b0c
DTITLE=Li´l Willy and The Fabulous Hepcats - Night prowling
DYEAR=2007
DGENRE=Blues
TTITLE0=Bon in Chicago
TTITLE1=I´m ready
TTITLE2=Pawn shop
TTITLE3=Ugly woman
TTITLE4=Chromonica
TTITLE5=Boogie
TTITLE6=Shake your hips
TTITLE7=Evil
TTITLE8=Little Willy
TTITLE9=I´m going home
TTITLE10=Keep on living
TTITLE11=Willy Brown
EXTD=Li´l Willy-vocals/harmonica\nFang the Thang-guitar\nHowling Nick-drum
EXTD=s\nNueng-bass
EXTT0=
EXTT1=
EXTT2=
EXTT3=
EXTT4=
EXTT5=
EXTT6=
EXTT7=
EXTT8=
EXTT9=
EXTT10=
EXTT11=
PLAYORDER=
